<?xml version="1.0" encoding="UTF-8" standalone="no"?>
<!-- Generator: Adobe Illustrator 18.1.1, SVG Export Plug-In . SVG Version: 6.00 Build 0)  -->

<svg
   xmlns:dc="http://purl.org/dc/elements/1.1/"
   xmlns:cc="http://creativecommons.org/ns#"
   xmlns:rdf="http://www.w3.org/1999/02/22-rdf-syntax-ns#"
   xmlns:svg="http://www.w3.org/2000/svg"
   xmlns="http://www.w3.org/2000/svg"
   xmlns:sodipodi="http://sodipodi.sourceforge.net/DTD/sodipodi-0.dtd"
   xmlns:inkscape="http://www.inkscape.org/namespaces/inkscape"
   version="1.1"
   id="Layer_1"
   x="0px"
   y="0px"
   viewBox="0 0 300 103.759"
   enable-background="new 0 0 420.9 148.8"
   xml:space="preserve"
   inkscape:version="0.91 r13725"
   sodipodi:docname="logo2.svg"
   width="300"
   height="103.759"><metadata
     id="metadata31"><rdf:RDF><cc:Work
         rdf:about=""><dc:format>image/svg+xml</dc:format><dc:type
           rdf:resource="http://purl.org/dc/dcmitype/StillImage" /><dc:title></dc:title></cc:Work></rdf:RDF></metadata><defs
     id="defs29" /><sodipodi:namedview
     pagecolor="#ffffff"
     bordercolor="#666666"
     borderopacity="1"
     objecttolerance="10"
     gridtolerance="10"
     guidetolerance="10"
     inkscape:pageopacity="0"
     inkscape:pageshadow="2"
     inkscape:window-width="1920"
     inkscape:window-height="1017"
     id="namedview27"
     showgrid="false"
     inkscape:zoom="2.4259021"
     inkscape:cx="223.63749"
     inkscape:cy="46.110932"
     inkscape:window-x="-8"
     inkscape:window-y="-8"
     inkscape:window-maximized="1"
     inkscape:current-layer="Layer_1" /><g
     id="g3"
     transform="matrix(0.83542189,0,0,0.83542189,-24.895572,-13.784857)"><g
       id="g5"><path
         d="m 36.9,58.8 c 8.1,0.9 8.3,1.1 8.3,9.3 l 0,19.8 c 0,9.2 -0.3,19.4 -1.1,30.3 -0.4,5.1 -1.2,8.1 -2.2,9.3 -0.9,1.2 -5.1,1.3 -8.5,1.3 -2.4,0 -3.6,1.3 -3.6,4 0,4.4 3.5,7.9 5.5,7.9 1.1,0 2.3,-0.4 3.1,-0.9 7.3,-4.4 18.4,-13.9 23.8,-26.3 3,-7 4,-12.8 4,-24.4 l 0,-39.7 c -10.4,1.9 -20.9,3.8 -29.5,4.8 l 0,4.6 z"
         id="path7"
         inkscape:connector-curvature="0"
         style="fill:#4c7cb6" /><path
         d="m 110.4,49.4 c -16.6,0 -33.1,11.4 -33.1,33.1 0,15.3 11,30.4 32.2,30.4 16.6,0 32.6,-10.9 32.6,-32.4 0,-17.1 -11.8,-31.1 -31.7,-31.1 z m 0.8,57.1 c -6.9,0 -10.4,-15.1 -10.4,-31.2 0,-12.7 3.5,-19.4 7.7,-19.4 5.7,0 10,8.6 10,32.7 0,14.4 -3.8,17.9 -7.3,17.9 z"
         id="path9"
         inkscape:connector-curvature="0"
         style="fill:#7db651" /><path
         d="m 183,49.4 c -16.6,0 -33.1,11.4 -33.1,33.1 0,15.3 11,30.4 32.2,30.4 16.6,0 32.6,-10.9 32.6,-32.4 C 214.6,63.4 202.9,49.4 183,49.4 Z m 0.8,57.1 c -6.9,0 -10.4,-15.1 -10.4,-31.2 0,-12.7 3.5,-19.4 7.7,-19.4 5.7,0 10,8.6 10,32.7 0,14.4 -3.8,17.9 -7.3,17.9 z"
         id="path11"
         inkscape:connector-curvature="0"
         style="fill:#7db651" /><g
         id="g13"><g
           id="g15"><path
             d="m 260,49.4 c -3.4,0 -5.7,1.3 -8.1,2.6 l -4.6,2.2 0,-37.7 c -11.4,1.9 -22.1,3.8 -29.5,4.7 l 0,4.8 c 8.1,0.5 8.4,0.7 8.4,8.6 l 0,73 c 8.5,3.6 16.2,5.2 24.4,5.2 21.8,0 37.6,-14.5 37.6,-34.6 C 288.1,62.4 276.5,49.4 260,49.4 Z m -5.9,56.7 c -2.6,0 -4.7,-1.4 -5.9,-4.7 -0.4,-1.2 -0.8,-3.5 -0.8,-5.6 l 0,-35.7 c 1.1,-0.5 2.4,-0.8 3.8,-0.8 5.9,0 14.1,4 14.1,24.5 -0.1,14.3 -4.8,22.3 -11.2,22.3 z"
             id="path17"
             inkscape:connector-curvature="0"
             style="fill:#4c7cb6" /></g></g><path
         d="m 321.9,96.9 0,-80.4 c -11.4,1.9 -22.1,3.8 -29.5,4.7 l 0,4.8 c 8.1,0.5 8.3,0.7 8.3,8.6 l 0,62.2 c 0,7.7 -0.7,8.3 -7.8,9.2 l 0,5.2 36.8,0 0,-5.2 c -7.1,-0.8 -7.8,-1.4 -7.8,-9.1 z"
         id="path19"
         inkscape:connector-curvature="0"
         style="fill:#4c7cb6" /><g
         id="g21"><g
           id="g23"><path
             d="m 371.3,98.5 c -7.5,0 -16.7,-7.3 -17,-19.4 12.9,-0.5 29.2,-1.9 31.2,-2.3 2.8,-0.5 3.4,-0.8 3.4,-5.4 0,-12.7 -11.6,-22.1 -22.3,-22.1 -18.2,0 -32.7,15.3 -32.7,33.8 0,16.8 11.7,29.7 30.7,29.7 4.6,0 15.6,-3 24.1,-15.2 l -2.6,-4.3 c -5.5,3.5 -9.7,5.2 -14.8,5.2 z m -9.4,-42.1 c 3.4,0 7.5,6.5 7.5,12.4 0,2.3 -0.5,2.7 -2.8,2.8 l -12,0.4 c 0.2,-11.2 4.3,-15.6 7.3,-15.6 z"
             id="path25"
             inkscape:connector-curvature="0"
             style="fill:#4c7cb6" /></g></g></g></g></svg>